<svg width="1363" height="297" viewBox="0 0 1363 297" fill="none" xmlns="http://www.w3.org/2000/svg">
<path d="M0 15C0 6.71573 6.71573 0 15 0H37V297H15C6.71573 297 0 290.284 0 282V15Z" fill="#55CFAB"/>
<path d="M37 0H1066V297H37V0Z" fill="#F0F0F0"/>
<path d="M105.691 53.7832L98.7305 75H93.123L102.633 49.4062H106.201L105.691 53.7832ZM111.475 75L104.496 53.7832L103.934 49.4062H107.537L117.1 75H111.475ZM111.158 65.4727V69.6035H97.6406V65.4727H111.158ZM123.92 72.8555L128.965 55.9805H134.396L126.75 77.8652C126.586 78.3457 126.363 78.8613 126.082 79.4121C125.812 79.9629 125.443 80.4844 124.975 80.9766C124.518 81.4805 123.938 81.8906 123.234 82.207C122.543 82.5234 121.693 82.6816 120.686 82.6816C120.205 82.6816 119.812 82.6523 119.508 82.5938C119.203 82.5352 118.84 82.4531 118.418 82.3477V78.6387C118.547 78.6387 118.682 78.6387 118.822 78.6387C118.963 78.6504 119.098 78.6562 119.227 78.6562C119.895 78.6562 120.439 78.5801 120.861 78.4277C121.283 78.2754 121.623 78.041 121.881 77.7246C122.139 77.4199 122.344 77.0215 122.496 76.5293L123.92 72.8555ZM121.811 55.9805L125.941 69.7617L126.662 75.123L123.217 75.4922L116.379 55.9805H121.811ZM146.402 70.7109V62.2383C146.402 61.6289 146.303 61.1074 146.104 60.6738C145.904 60.2285 145.594 59.8828 145.172 59.6367C144.762 59.3906 144.229 59.2676 143.572 59.2676C143.01 59.2676 142.523 59.3672 142.113 59.5664C141.703 59.7539 141.387 60.0293 141.164 60.3926C140.941 60.7441 140.83 61.1602 140.83 61.6406H135.768C135.768 60.832 135.955 60.0645 136.33 59.3379C136.705 58.6113 137.25 57.9727 137.965 57.4219C138.68 56.8594 139.529 56.4199 140.514 56.1035C141.51 55.7871 142.623 55.6289 143.854 55.6289C145.33 55.6289 146.643 55.875 147.791 56.3672C148.939 56.8594 149.842 57.5977 150.498 58.582C151.166 59.5664 151.5 60.7969 151.5 62.2734V70.4121C151.5 71.4551 151.564 72.3105 151.693 72.9785C151.822 73.6348 152.01 74.209 152.256 74.7012V75H147.141C146.895 74.4844 146.707 73.8398 146.578 73.0664C146.461 72.2812 146.402 71.4961 146.402 70.7109ZM147.07 63.416L147.105 66.2812H144.275C143.607 66.2812 143.027 66.3574 142.535 66.5098C142.043 66.6621 141.639 66.8789 141.322 67.1602C141.006 67.4297 140.771 67.7461 140.619 68.1094C140.479 68.4727 140.408 68.8711 140.408 69.3047C140.408 69.7383 140.508 70.1309 140.707 70.4824C140.906 70.8223 141.193 71.0918 141.568 71.291C141.943 71.4785 142.383 71.5723 142.887 71.5723C143.648 71.5723 144.311 71.4199 144.873 71.1152C145.436 70.8105 145.869 70.4355 146.174 69.9902C146.49 69.5449 146.654 69.123 146.666 68.7246L148.002 70.8691C147.814 71.3496 147.557 71.8477 147.229 72.3633C146.912 72.8789 146.508 73.3652 146.016 73.8223C145.523 74.2676 144.932 74.6367 144.24 74.9297C143.549 75.2109 142.729 75.3516 141.779 75.3516C140.572 75.3516 139.477 75.1113 138.492 74.6309C137.52 74.1387 136.746 73.4648 136.172 72.6094C135.609 71.7422 135.328 70.7578 135.328 69.6562C135.328 68.6602 135.516 67.7754 135.891 67.002C136.266 66.2285 136.816 65.5781 137.543 65.0508C138.281 64.5117 139.201 64.1074 140.303 63.8379C141.404 63.5566 142.682 63.416 144.135 63.416H147.07ZM167.092 49.4062H171.557L178.131 68.1973L184.705 49.4062H189.17L179.924 75H176.338L167.092 49.4062ZM164.684 49.4062H169.131L169.939 67.7227V75H164.684V49.4062ZM187.131 49.4062H191.596V75H186.322V67.7227L187.131 49.4062ZM206.168 70.7109V62.2383C206.168 61.6289 206.068 61.1074 205.869 60.6738C205.67 60.2285 205.359 59.8828 204.938 59.6367C204.527 59.3906 203.994 59.2676 203.338 59.2676C202.775 59.2676 202.289 59.3672 201.879 59.5664C201.469 59.7539 201.152 60.0293 200.93 60.3926C200.707 60.7441 200.596 61.1602 200.596 61.6406H195.533C195.533 60.832 195.721 60.0645 196.096 59.3379C196.471 58.6113 197.016 57.9727 197.73 57.4219C198.445 56.8594 199.295 56.4199 200.279 56.1035C201.275 55.7871 202.389 55.6289 203.619 55.6289C205.096 55.6289 206.408 55.875 207.557 56.3672C208.705 56.8594 209.607 57.5977 210.264 58.582C210.932 59.5664 211.266 60.7969 211.266 62.2734V70.4121C211.266 71.4551 211.33 72.3105 211.459 72.9785C211.588 73.6348 211.775 74.209 212.021 74.7012V75H206.906C206.66 74.4844 206.473 73.8398 206.344 73.0664C206.227 72.2812 206.168 71.4961 206.168 70.7109ZM206.836 63.416L206.871 66.2812H204.041C203.373 66.2812 202.793 66.3574 202.301 66.5098C201.809 66.6621 201.404 66.8789 201.088 67.1602C200.771 67.4297 200.537 67.7461 200.385 68.1094C200.244 68.4727 200.174 68.8711 200.174 69.3047C200.174 69.7383 200.273 70.1309 200.473 70.4824C200.672 70.8223 200.959 71.0918 201.334 71.291C201.709 71.4785 202.148 71.5723 202.652 71.5723C203.414 71.5723 204.076 71.4199 204.639 71.1152C205.201 70.8105 205.635 70.4355 205.939 69.9902C206.256 69.5449 206.42 69.123 206.432 68.7246L207.768 70.8691C207.58 71.3496 207.322 71.8477 206.994 72.3633C206.678 72.8789 206.273 73.3652 205.781 73.8223C205.289 74.2676 204.697 74.6367 204.006 74.9297C203.314 75.2109 202.494 75.3516 201.545 75.3516C200.338 75.3516 199.242 75.1113 198.258 74.6309C197.285 74.1387 196.512 73.4648 195.938 72.6094C195.375 71.7422 195.094 70.7578 195.094 69.6562C195.094 68.6602 195.281 67.7754 195.656 67.002C196.031 66.2285 196.582 65.5781 197.309 65.0508C198.047 64.5117 198.967 64.1074 200.068 63.8379C201.17 63.5566 202.447 63.416 203.9 63.416H206.836ZM230.303 71.0449V75H215.854V71.0449H230.303ZM230.021 58.8984L217.893 75H214.5V71.9941L226.576 55.9805H230.021V58.8984ZM228.229 55.9805V59.9531H214.781V55.9805H228.229ZM238.828 48V75H233.748V48H238.828ZM242.203 65.6836V65.3145C242.203 63.9199 242.402 62.6367 242.801 61.4648C243.199 60.2812 243.779 59.2559 244.541 58.3887C245.303 57.5215 246.24 56.8477 247.354 56.3672C248.467 55.875 249.744 55.6289 251.186 55.6289C252.627 55.6289 253.91 55.875 255.035 56.3672C256.16 56.8477 257.104 57.5215 257.865 58.3887C258.639 59.2559 259.225 60.2812 259.623 61.4648C260.021 62.6367 260.221 63.9199 260.221 65.3145V65.6836C260.221 67.0664 260.021 68.3496 259.623 69.5332C259.225 70.7051 258.639 71.7305 257.865 72.6094C257.104 73.4766 256.166 74.1504 255.053 74.6309C253.939 75.1113 252.662 75.3516 251.221 75.3516C249.779 75.3516 248.496 75.1113 247.371 74.6309C246.258 74.1504 245.314 73.4766 244.541 72.6094C243.779 71.7305 243.199 70.7051 242.801 69.5332C242.402 68.3496 242.203 67.0664 242.203 65.6836ZM247.266 65.3145V65.6836C247.266 66.4805 247.336 67.2246 247.477 67.916C247.617 68.6074 247.84 69.2168 248.145 69.7441C248.461 70.2598 248.871 70.6641 249.375 70.957C249.879 71.25 250.494 71.3965 251.221 71.3965C251.924 71.3965 252.527 71.25 253.031 70.957C253.535 70.6641 253.939 70.2598 254.244 69.7441C254.549 69.2168 254.771 68.6074 254.912 67.916C255.064 67.2246 255.141 66.4805 255.141 65.6836V65.3145C255.141 64.541 255.064 63.8145 254.912 63.1348C254.771 62.4434 254.543 61.834 254.227 61.3066C253.922 60.7676 253.518 60.3457 253.014 60.041C252.51 59.7363 251.9 59.584 251.186 59.584C250.471 59.584 249.861 59.7363 249.357 60.041C248.865 60.3457 248.461 60.7676 248.145 61.3066C247.84 61.834 247.617 62.4434 247.477 63.1348C247.336 63.8145 247.266 64.541 247.266 65.3145ZM274.582 70.4473V55.9805H279.645V75H274.881L274.582 70.4473ZM275.145 66.5449L276.639 66.5098C276.639 67.7754 276.492 68.9531 276.199 70.043C275.906 71.1211 275.467 72.0586 274.881 72.8555C274.295 73.6406 273.557 74.2559 272.666 74.7012C271.775 75.1348 270.727 75.3516 269.52 75.3516C268.594 75.3516 267.738 75.2227 266.953 74.9648C266.18 74.6953 265.512 74.2793 264.949 73.7168C264.398 73.1426 263.965 72.4102 263.648 71.5195C263.344 70.6172 263.191 69.5332 263.191 68.2676V55.9805H268.254V68.3027C268.254 68.8652 268.318 69.3398 268.447 69.7266C268.588 70.1133 268.781 70.4297 269.027 70.6758C269.273 70.9219 269.561 71.0977 269.889 71.2031C270.229 71.3086 270.604 71.3613 271.014 71.3613C272.057 71.3613 272.877 71.1504 273.475 70.7285C274.084 70.3066 274.512 69.7324 274.758 69.0059C275.016 68.2676 275.145 67.4473 275.145 66.5449ZM288.574 59.918V75H283.494V55.9805H288.258L288.574 59.918ZM287.871 64.8223H286.465C286.465 63.498 286.623 62.2793 286.939 61.166C287.268 60.041 287.742 59.0684 288.363 58.248C288.996 57.416 289.775 56.7715 290.701 56.3145C291.627 55.8574 292.699 55.6289 293.918 55.6289C294.762 55.6289 295.535 55.7578 296.238 56.0156C296.941 56.2617 297.545 56.6543 298.049 57.1934C298.564 57.7207 298.963 58.4121 299.244 59.2676C299.525 60.1113 299.666 61.125 299.666 62.3086V75H294.604V62.8711C294.604 62.0039 294.486 61.3359 294.252 60.8672C294.018 60.3984 293.684 60.0703 293.25 59.8828C292.828 59.6953 292.318 59.6016 291.721 59.6016C291.064 59.6016 290.49 59.7363 289.998 60.0059C289.518 60.2754 289.119 60.6504 288.803 61.1309C288.486 61.5996 288.252 62.1504 288.1 62.7832C287.947 63.416 287.871 64.0957 287.871 64.8223ZM299.191 64.2422L297.381 64.4707C297.381 63.2285 297.533 62.0742 297.838 61.0078C298.154 59.9414 298.617 59.0039 299.227 58.1953C299.848 57.3867 300.615 56.7598 301.529 56.3145C302.443 55.8574 303.498 55.6289 304.693 55.6289C305.607 55.6289 306.439 55.7637 307.189 56.0332C307.939 56.291 308.578 56.707 309.105 57.2812C309.645 57.8438 310.055 58.582 310.336 59.4961C310.629 60.4102 310.775 61.5293 310.775 62.8535V75H305.695V62.8535C305.695 61.9746 305.578 61.3066 305.344 60.8496C305.121 60.3809 304.793 60.0586 304.359 59.8828C303.938 59.6953 303.434 59.6016 302.848 59.6016C302.238 59.6016 301.705 59.7246 301.248 59.9707C300.791 60.2051 300.41 60.5332 300.105 60.9551C299.801 61.377 299.572 61.8691 299.42 62.4316C299.268 62.9824 299.191 63.5859 299.191 64.2422Z" fill="#888888"/>
<path d="M116.543 129.418C116.543 128.798 116.452 128.242 116.27 127.75C116.087 127.24 115.75 126.766 115.258 126.328C114.766 125.891 114.055 125.453 113.125 125.016C112.214 124.56 111.01 124.086 109.516 123.594C107.766 123.01 106.079 122.354 104.457 121.625C102.835 120.878 101.385 120.012 100.109 119.027C98.8333 118.025 97.8216 116.858 97.0742 115.527C96.3268 114.178 95.9531 112.611 95.9531 110.824C95.9531 109.111 96.3359 107.57 97.1016 106.203C97.8672 104.818 98.9336 103.642 100.301 102.676C101.686 101.691 103.309 100.944 105.168 100.434C107.027 99.9049 109.06 99.6406 111.266 99.6406C114.182 99.6406 116.753 100.151 118.977 101.172C121.219 102.174 122.969 103.605 124.227 105.465C125.503 107.306 126.141 109.484 126.141 112H116.598C116.598 110.997 116.388 110.113 115.969 109.348C115.568 108.582 114.957 107.98 114.137 107.543C113.316 107.105 112.286 106.887 111.047 106.887C109.844 106.887 108.832 107.069 108.012 107.434C107.191 107.798 106.572 108.29 106.152 108.91C105.733 109.512 105.523 110.177 105.523 110.906C105.523 111.508 105.688 112.055 106.016 112.547C106.362 113.021 106.845 113.467 107.465 113.887C108.103 114.306 108.868 114.707 109.762 115.09C110.673 115.473 111.694 115.846 112.824 116.211C114.939 116.885 116.816 117.642 118.457 118.48C120.116 119.301 121.51 120.24 122.641 121.297C123.789 122.336 124.655 123.521 125.238 124.852C125.84 126.182 126.141 127.686 126.141 129.363C126.141 131.15 125.794 132.736 125.102 134.121C124.409 135.507 123.415 136.682 122.121 137.648C120.827 138.596 119.277 139.316 117.473 139.809C115.668 140.301 113.654 140.547 111.43 140.547C109.388 140.547 107.374 140.292 105.387 139.781C103.418 139.253 101.632 138.451 100.027 137.375C98.4232 136.281 97.138 134.887 96.1719 133.191C95.224 131.478 94.75 129.445 94.75 127.094H104.375C104.375 128.26 104.53 129.245 104.84 130.047C105.15 130.849 105.605 131.496 106.207 131.988C106.809 132.462 107.547 132.809 108.422 133.027C109.297 133.228 110.299 133.328 111.43 133.328C112.651 133.328 113.635 133.155 114.383 132.809C115.13 132.444 115.677 131.97 116.023 131.387C116.37 130.785 116.543 130.129 116.543 129.418ZM139.949 116.676V140H130.734V110.414H139.375L139.949 116.676ZM138.828 124.195L136.723 124.25C136.723 122.172 136.969 120.258 137.461 118.508C137.953 116.758 138.682 115.236 139.648 113.941C140.615 112.647 141.799 111.645 143.203 110.934C144.625 110.223 146.266 109.867 148.125 109.867C149.419 109.867 150.595 110.068 151.652 110.469C152.71 110.852 153.621 111.462 154.387 112.301C155.152 113.121 155.736 114.197 156.137 115.527C156.556 116.84 156.766 118.417 156.766 120.258V140H147.551V121.434C147.551 120.176 147.405 119.228 147.113 118.59C146.84 117.952 146.439 117.523 145.91 117.305C145.382 117.086 144.734 116.977 143.969 116.977C143.167 116.977 142.447 117.159 141.809 117.523C141.171 117.888 140.624 118.398 140.168 119.055C139.73 119.693 139.393 120.449 139.156 121.324C138.938 122.199 138.828 123.156 138.828 124.195ZM155.727 124.195L153.156 124.25C153.156 122.172 153.384 120.258 153.84 118.508C154.314 116.758 155.016 115.236 155.945 113.941C156.893 112.647 158.069 111.645 159.473 110.934C160.876 110.223 162.508 109.867 164.367 109.867C165.716 109.867 166.956 110.068 168.086 110.469C169.216 110.87 170.191 111.517 171.012 112.41C171.832 113.303 172.47 114.488 172.926 115.965C173.382 117.423 173.609 119.228 173.609 121.379V140H164.367V121.379C164.367 120.158 164.221 119.237 163.93 118.617C163.656 117.979 163.255 117.551 162.727 117.332C162.198 117.095 161.569 116.977 160.84 116.977C159.965 116.977 159.208 117.159 158.57 117.523C157.932 117.888 157.395 118.398 156.957 119.055C156.538 119.693 156.228 120.449 156.027 121.324C155.827 122.199 155.727 123.156 155.727 124.195ZM194.254 132.562V120.367C194.254 119.529 194.135 118.809 193.898 118.207C193.661 117.605 193.288 117.141 192.777 116.812C192.267 116.466 191.583 116.293 190.727 116.293C190.034 116.293 189.441 116.411 188.949 116.648C188.457 116.885 188.083 117.241 187.828 117.715C187.573 118.189 187.445 118.79 187.445 119.52H178.23C178.23 118.152 178.531 116.885 179.133 115.719C179.753 114.534 180.628 113.504 181.758 112.629C182.906 111.754 184.273 111.079 185.859 110.605C187.464 110.113 189.25 109.867 191.219 109.867C193.57 109.867 195.667 110.259 197.508 111.043C199.367 111.827 200.835 113.003 201.91 114.57C202.986 116.12 203.523 118.07 203.523 120.422V132.535C203.523 134.467 203.633 135.935 203.852 136.938C204.07 137.922 204.38 138.788 204.781 139.535V140H195.539C195.102 139.089 194.773 137.977 194.555 136.664C194.354 135.333 194.254 133.966 194.254 132.562ZM195.375 121.926L195.43 126.848H191.355C190.499 126.848 189.77 126.966 189.168 127.203C188.585 127.44 188.111 127.768 187.746 128.188C187.4 128.589 187.145 129.044 186.98 129.555C186.835 130.065 186.762 130.603 186.762 131.168C186.762 131.715 186.889 132.207 187.145 132.645C187.418 133.064 187.783 133.392 188.238 133.629C188.694 133.866 189.204 133.984 189.77 133.984C190.79 133.984 191.656 133.793 192.367 133.41C193.096 133.009 193.652 132.526 194.035 131.961C194.418 131.396 194.609 130.867 194.609 130.375L196.633 134.148C196.268 134.878 195.849 135.616 195.375 136.363C194.919 137.111 194.345 137.803 193.652 138.441C192.978 139.061 192.148 139.572 191.164 139.973C190.18 140.355 188.986 140.547 187.582 140.547C185.759 140.547 184.082 140.173 182.551 139.426C181.038 138.678 179.826 137.639 178.914 136.309C178.003 134.96 177.547 133.41 177.547 131.66C177.547 130.129 177.82 128.762 178.367 127.559C178.932 126.355 179.78 125.335 180.91 124.496C182.04 123.658 183.48 123.02 185.23 122.582C186.98 122.145 189.04 121.926 191.41 121.926H195.375ZM217.934 117.742V140H208.719V110.414H217.332L217.934 117.742ZM226.684 110.195L226.52 118.754C226.155 118.717 225.663 118.672 225.043 118.617C224.423 118.562 223.904 118.535 223.484 118.535C222.409 118.535 221.479 118.663 220.695 118.918C219.93 119.155 219.292 119.52 218.781 120.012C218.289 120.486 217.924 121.087 217.688 121.816C217.469 122.546 217.368 123.393 217.387 124.359L215.719 123.266C215.719 121.279 215.91 119.474 216.293 117.852C216.694 116.211 217.259 114.798 217.988 113.613C218.717 112.41 219.602 111.49 220.641 110.852C221.68 110.195 222.846 109.867 224.141 109.867C224.596 109.867 225.043 109.895 225.48 109.949C225.936 110.004 226.337 110.086 226.684 110.195ZM246.809 110.414V116.812H228.98V110.414H246.809ZM232.727 103.059H241.941V130.348C241.941 131.132 242.033 131.742 242.215 132.18C242.397 132.599 242.707 132.9 243.145 133.082C243.6 133.246 244.202 133.328 244.949 133.328C245.478 133.328 245.915 133.319 246.262 133.301C246.608 133.264 246.936 133.219 247.246 133.164V139.754C246.462 140.009 245.642 140.201 244.785 140.328C243.928 140.474 243.017 140.547 242.051 140.547C240.082 140.547 238.396 140.237 236.992 139.617C235.607 138.997 234.549 138.022 233.82 136.691C233.091 135.361 232.727 133.629 232.727 131.496V103.059ZM274.453 100.188V140H264.855V100.188H274.453ZM298.215 100.188L282.793 120.367L273.77 130.238L272.02 121.434L277.789 112.684L286.375 100.188H298.215ZM286.867 140L276.586 122.062L284.051 116.566L298.215 140H286.867ZM313.855 140.547C311.449 140.547 309.298 140.173 307.402 139.426C305.507 138.66 303.902 137.612 302.59 136.281C301.296 134.951 300.302 133.419 299.609 131.688C298.935 129.956 298.598 128.124 298.598 126.191V125.152C298.598 122.983 298.898 120.978 299.5 119.137C300.102 117.277 300.995 115.655 302.18 114.27C303.365 112.884 304.85 111.809 306.637 111.043C308.423 110.259 310.501 109.867 312.871 109.867C314.967 109.867 316.845 110.204 318.504 110.879C320.163 111.553 321.566 112.52 322.715 113.777C323.882 115.035 324.766 116.557 325.367 118.344C325.987 120.13 326.297 122.135 326.297 124.359V128.105H302.125V122.336H317.301V121.625C317.319 120.641 317.146 119.802 316.781 119.109C316.435 118.417 315.924 117.888 315.25 117.523C314.576 117.159 313.755 116.977 312.789 116.977C311.786 116.977 310.957 117.195 310.301 117.633C309.663 118.07 309.161 118.672 308.797 119.438C308.451 120.185 308.204 121.051 308.059 122.035C307.913 123.02 307.84 124.059 307.84 125.152V126.191C307.84 127.285 307.986 128.279 308.277 129.172C308.587 130.065 309.025 130.831 309.59 131.469C310.173 132.089 310.866 132.572 311.668 132.918C312.488 133.264 313.418 133.438 314.457 133.438C315.715 133.438 316.954 133.201 318.176 132.727C319.397 132.253 320.445 131.469 321.32 130.375L325.504 135.352C324.902 136.208 324.046 137.038 322.934 137.84C321.84 138.642 320.527 139.298 318.996 139.809C317.465 140.301 315.751 140.547 313.855 140.547ZM338.738 136.527L346.395 110.414H356.293L344.398 144.402C344.143 145.15 343.806 145.952 343.387 146.809C342.967 147.684 342.393 148.513 341.664 149.297C340.935 150.081 339.996 150.719 338.848 151.211C337.717 151.703 336.314 151.949 334.637 151.949C333.743 151.949 333.087 151.904 332.668 151.812C332.267 151.74 331.647 151.603 330.809 151.402V144.812C331.046 144.812 331.246 144.812 331.41 144.812C331.592 144.812 331.793 144.812 332.012 144.812C332.996 144.812 333.78 144.712 334.363 144.512C334.965 144.311 335.421 144.02 335.73 143.637C336.059 143.254 336.314 142.789 336.496 142.242L338.738 136.527ZM336.797 110.414L342.621 131.113L343.633 140.875H337.453L326.926 110.414H336.797Z" fill="black"/>
<rect x="93" y="178" width="917" height="77" rx="10" fill="#D3D3D3"/>
<rect x="111" y="196" width="98" height="41" rx="3" fill="#424242"/>
<rect x="111" y="196" width="98" height="41" rx="3" stroke="#424242" stroke-width="4"/>
<path d="M137.078 210.203V223H133.993V210.203H137.078ZM142.053 215.529V217.902H136.199V215.529H142.053ZM142.554 210.203V212.585H136.199V210.203H142.554ZM146.825 209.5V223H143.854V209.5H146.825ZM154.208 220.688V213.49H157.179V223H154.401L154.208 220.688ZM154.489 218.755L155.263 218.737C155.263 219.376 155.187 219.968 155.034 220.513C154.882 221.052 154.656 221.521 154.357 221.919C154.064 222.317 153.701 222.628 153.268 222.851C152.84 223.067 152.345 223.176 151.782 223.176C151.313 223.176 150.883 223.111 150.49 222.982C150.104 222.848 149.77 222.64 149.488 222.358C149.207 222.071 148.987 221.705 148.829 221.26C148.677 220.809 148.601 220.27 148.601 219.643V213.49H151.562V219.66C151.562 219.871 151.589 220.053 151.642 220.205C151.694 220.357 151.771 220.486 151.87 220.592C151.97 220.691 152.093 220.768 152.239 220.82C152.392 220.867 152.564 220.891 152.758 220.891C153.203 220.891 153.552 220.797 153.804 220.609C154.056 220.422 154.231 220.167 154.331 219.845C154.437 219.522 154.489 219.159 154.489 218.755ZM163.823 213.49V215.547H158.093V213.49H163.823ZM159.297 211.126H162.259V219.897C162.259 220.149 162.288 220.346 162.347 220.486C162.405 220.621 162.505 220.718 162.646 220.776C162.792 220.829 162.985 220.855 163.226 220.855C163.396 220.855 163.536 220.853 163.647 220.847C163.759 220.835 163.864 220.82 163.964 220.803V222.921C163.712 223.003 163.448 223.064 163.173 223.105C162.897 223.152 162.604 223.176 162.294 223.176C161.661 223.176 161.119 223.076 160.668 222.877C160.223 222.678 159.883 222.364 159.648 221.937C159.414 221.509 159.297 220.952 159.297 220.267V211.126ZM170.011 213.49V215.547H164.28V213.49H170.011ZM165.484 211.126H168.446V219.897C168.446 220.149 168.476 220.346 168.534 220.486C168.593 220.621 168.692 220.718 168.833 220.776C168.979 220.829 169.173 220.855 169.413 220.855C169.583 220.855 169.724 220.853 169.835 220.847C169.946 220.835 170.052 220.82 170.151 220.803V222.921C169.899 223.003 169.636 223.064 169.36 223.105C169.085 223.152 168.792 223.176 168.481 223.176C167.849 223.176 167.307 223.076 166.855 222.877C166.41 222.678 166.07 222.364 165.836 221.937C165.602 221.509 165.484 220.952 165.484 220.267V211.126ZM175.794 223.176C175.021 223.176 174.329 223.056 173.72 222.815C173.11 222.569 172.595 222.232 172.173 221.805C171.757 221.377 171.438 220.885 171.215 220.328C170.998 219.771 170.89 219.183 170.89 218.562V218.228C170.89 217.53 170.986 216.886 171.18 216.294C171.373 215.696 171.66 215.175 172.041 214.729C172.422 214.284 172.899 213.938 173.474 213.692C174.048 213.44 174.716 213.314 175.478 213.314C176.151 213.314 176.755 213.423 177.288 213.64C177.821 213.856 178.272 214.167 178.642 214.571C179.017 214.976 179.301 215.465 179.494 216.039C179.693 216.613 179.793 217.258 179.793 217.973V219.177H172.023V217.322H176.901V217.094C176.907 216.777 176.852 216.508 176.734 216.285C176.623 216.062 176.459 215.893 176.242 215.775C176.025 215.658 175.762 215.6 175.451 215.6C175.129 215.6 174.862 215.67 174.651 215.811C174.446 215.951 174.285 216.145 174.168 216.391C174.057 216.631 173.978 216.909 173.931 217.226C173.884 217.542 173.86 217.876 173.86 218.228V218.562C173.86 218.913 173.907 219.232 174.001 219.52C174.101 219.807 174.241 220.053 174.423 220.258C174.61 220.457 174.833 220.612 175.091 220.724C175.354 220.835 175.653 220.891 175.987 220.891C176.392 220.891 176.79 220.814 177.183 220.662C177.575 220.51 177.912 220.258 178.193 219.906L179.538 221.506C179.345 221.781 179.069 222.048 178.712 222.306C178.36 222.563 177.938 222.774 177.446 222.938C176.954 223.097 176.403 223.176 175.794 223.176ZM183.985 215.846V223H181.023V213.49H183.792L183.985 215.846ZM186.798 213.42L186.745 216.171C186.628 216.159 186.47 216.145 186.271 216.127C186.071 216.109 185.904 216.101 185.77 216.101C185.424 216.101 185.125 216.142 184.873 216.224C184.627 216.3 184.422 216.417 184.258 216.575C184.1 216.728 183.982 216.921 183.906 217.155C183.836 217.39 183.804 217.662 183.81 217.973L183.273 217.621C183.273 216.982 183.335 216.402 183.458 215.881C183.587 215.354 183.769 214.899 184.003 214.519C184.237 214.132 184.521 213.836 184.855 213.631C185.189 213.42 185.564 213.314 185.98 213.314C186.127 213.314 186.271 213.323 186.411 213.341C186.558 213.358 186.687 213.385 186.798 213.42Z" fill="white"/>
<rect x="229" y="196" width="104" height="41" rx="3" fill="#424242"/>
<rect x="229" y="196" width="104" height="41" rx="3" stroke="#424242" stroke-width="4"/>
<path d="M260.812 220.627V223H254.343V220.627H260.812ZM255.441 210.203V223H252.356V210.203H255.441ZM266.911 220.609V216.689C266.911 216.42 266.873 216.188 266.797 215.995C266.721 215.802 266.601 215.652 266.437 215.547C266.272 215.436 266.053 215.38 265.777 215.38C265.555 215.38 265.364 215.418 265.206 215.494C265.048 215.57 264.928 215.685 264.846 215.837C264.764 215.989 264.723 216.183 264.723 216.417H261.761C261.761 215.978 261.857 215.57 262.051 215.195C262.25 214.814 262.531 214.483 262.895 214.202C263.264 213.921 263.703 213.704 264.213 213.552C264.729 213.394 265.303 213.314 265.936 213.314C266.691 213.314 267.365 213.44 267.957 213.692C268.555 213.944 269.026 214.322 269.372 214.826C269.718 215.324 269.891 215.951 269.891 216.707V220.601C269.891 221.222 269.926 221.693 269.996 222.016C270.066 222.332 270.166 222.61 270.295 222.851V223H267.324C267.184 222.707 267.078 222.35 267.008 221.928C266.943 221.5 266.911 221.061 266.911 220.609ZM267.271 217.19L267.289 218.772H265.979C265.704 218.772 265.47 218.811 265.276 218.887C265.089 218.963 264.937 219.068 264.819 219.203C264.708 219.332 264.626 219.479 264.573 219.643C264.526 219.807 264.503 219.979 264.503 220.161C264.503 220.337 264.544 220.495 264.626 220.636C264.714 220.771 264.831 220.876 264.978 220.952C265.124 221.028 265.288 221.066 265.47 221.066C265.798 221.066 266.076 221.005 266.305 220.882C266.539 220.753 266.718 220.598 266.841 220.416C266.964 220.234 267.025 220.064 267.025 219.906L267.676 221.119C267.559 221.354 267.424 221.591 267.271 221.831C267.125 222.071 266.94 222.294 266.718 222.499C266.501 222.698 266.234 222.862 265.918 222.991C265.602 223.114 265.218 223.176 264.767 223.176C264.181 223.176 263.642 223.056 263.149 222.815C262.663 222.575 262.273 222.241 261.98 221.813C261.688 221.38 261.541 220.882 261.541 220.319C261.541 219.827 261.629 219.388 261.805 219.001C261.986 218.614 262.259 218.286 262.622 218.017C262.985 217.747 263.448 217.542 264.011 217.401C264.573 217.261 265.235 217.19 265.997 217.19H267.271ZM274.522 215.846V223H271.561V213.49H274.329L274.522 215.846ZM277.335 213.42L277.282 216.171C277.165 216.159 277.007 216.145 276.808 216.127C276.608 216.109 276.441 216.101 276.307 216.101C275.961 216.101 275.662 216.142 275.41 216.224C275.164 216.3 274.959 216.417 274.795 216.575C274.637 216.728 274.52 216.921 274.443 217.155C274.373 217.39 274.341 217.662 274.347 217.973L273.811 217.621C273.811 216.982 273.872 216.402 273.995 215.881C274.124 215.354 274.306 214.899 274.54 214.519C274.774 214.132 275.059 213.836 275.393 213.631C275.727 213.42 276.102 213.314 276.518 213.314C276.664 213.314 276.808 213.323 276.948 213.341C277.095 213.358 277.224 213.385 277.335 213.42ZM283.03 220.609V216.689C283.03 216.42 282.992 216.188 282.916 215.995C282.84 215.802 282.72 215.652 282.556 215.547C282.392 215.436 282.172 215.38 281.896 215.38C281.674 215.38 281.483 215.418 281.325 215.494C281.167 215.57 281.047 215.685 280.965 215.837C280.883 215.989 280.842 216.183 280.842 216.417H277.88C277.88 215.978 277.977 215.57 278.17 215.195C278.369 214.814 278.65 214.483 279.014 214.202C279.383 213.921 279.822 213.704 280.332 213.552C280.848 213.394 281.422 213.314 282.055 213.314C282.811 213.314 283.484 213.44 284.076 213.692C284.674 213.944 285.146 214.322 285.491 214.826C285.837 215.324 286.01 215.951 286.01 216.707V220.601C286.01 221.222 286.045 221.693 286.115 222.016C286.186 222.332 286.285 222.61 286.414 222.851V223H283.443C283.303 222.707 283.197 222.35 283.127 221.928C283.062 221.5 283.03 221.061 283.03 220.609ZM283.391 217.19L283.408 218.772H282.099C281.823 218.772 281.589 218.811 281.396 218.887C281.208 218.963 281.056 219.068 280.938 219.203C280.827 219.332 280.745 219.479 280.692 219.643C280.646 219.807 280.622 219.979 280.622 220.161C280.622 220.337 280.663 220.495 280.745 220.636C280.833 220.771 280.95 220.876 281.097 220.952C281.243 221.028 281.407 221.066 281.589 221.066C281.917 221.066 282.195 221.005 282.424 220.882C282.658 220.753 282.837 220.598 282.96 220.416C283.083 220.234 283.145 220.064 283.145 219.906L283.795 221.119C283.678 221.354 283.543 221.591 283.391 221.831C283.244 222.071 283.06 222.294 282.837 222.499C282.62 222.698 282.354 222.862 282.037 222.991C281.721 223.114 281.337 223.176 280.886 223.176C280.3 223.176 279.761 223.056 279.269 222.815C278.782 222.575 278.393 222.241 278.1 221.813C277.807 221.38 277.66 220.882 277.66 220.319C277.66 219.827 277.748 219.388 277.924 219.001C278.105 218.614 278.378 218.286 278.741 218.017C279.104 217.747 279.567 217.542 280.13 217.401C280.692 217.261 281.354 217.19 282.116 217.19H283.391ZM290.94 220.97L292.812 213.49H295.933L292.821 223H290.976L290.94 220.97ZM289.833 213.49L291.679 220.97L291.661 223H289.807L286.704 213.49H289.833ZM301.294 223.176C300.521 223.176 299.829 223.056 299.22 222.815C298.61 222.569 298.095 222.232 297.673 221.805C297.257 221.377 296.938 220.885 296.715 220.328C296.498 219.771 296.39 219.183 296.39 218.562V218.228C296.39 217.53 296.486 216.886 296.68 216.294C296.873 215.696 297.16 215.175 297.541 214.729C297.922 214.284 298.399 213.938 298.974 213.692C299.548 213.44 300.216 213.314 300.978 213.314C301.651 213.314 302.255 213.423 302.788 213.64C303.321 213.856 303.772 214.167 304.142 214.571C304.517 214.976 304.801 215.465 304.994 216.039C305.193 216.613 305.293 217.258 305.293 217.973V219.177H297.523V217.322H302.401V217.094C302.407 216.777 302.352 216.508 302.234 216.285C302.123 216.062 301.959 215.893 301.742 215.775C301.525 215.658 301.262 215.6 300.951 215.6C300.629 215.6 300.362 215.67 300.151 215.811C299.946 215.951 299.785 216.145 299.668 216.391C299.557 216.631 299.478 216.909 299.431 217.226C299.384 217.542 299.36 217.876 299.36 218.228V218.562C299.36 218.913 299.407 219.232 299.501 219.52C299.601 219.807 299.741 220.053 299.923 220.258C300.11 220.457 300.333 220.612 300.591 220.724C300.854 220.835 301.153 220.891 301.487 220.891C301.892 220.891 302.29 220.814 302.683 220.662C303.075 220.51 303.412 220.258 303.693 219.906L305.038 221.506C304.845 221.781 304.569 222.048 304.212 222.306C303.86 222.563 303.438 222.774 302.946 222.938C302.454 223.097 301.903 223.176 301.294 223.176ZM309.626 209.5V223H306.655V209.5H309.626Z" fill="white"/>
<rect x="353" y="196" width="109" height="41" rx="3" fill="#424242"/>
<rect x="353" y="196" width="109" height="41" rx="3" stroke="#424242" stroke-width="4"/>
<path d="M381.678 212.893L378.558 223H375.244L379.946 210.203H382.047L381.678 212.893ZM384.262 223L381.133 212.893L380.729 210.203H382.855L387.584 223H384.262ZM384.139 218.228V220.609H377.573V218.228H384.139ZM391.372 215.846V223H388.41V213.49H391.179L391.372 215.846ZM394.185 213.42L394.132 216.171C394.015 216.159 393.856 216.145 393.657 216.127C393.458 216.109 393.291 216.101 393.156 216.101C392.811 216.101 392.512 216.142 392.26 216.224C392.014 216.3 391.809 216.417 391.645 216.575C391.486 216.728 391.369 216.921 391.293 217.155C391.223 217.39 391.19 217.662 391.196 217.973L390.66 217.621C390.66 216.982 390.722 216.402 390.845 215.881C390.974 215.354 391.155 214.899 391.39 214.519C391.624 214.132 391.908 213.836 392.242 213.631C392.576 213.42 392.951 213.314 393.367 213.314C393.514 213.314 393.657 213.323 393.798 213.341C393.944 213.358 394.073 213.385 394.185 213.42ZM400.495 220.82V209.5H403.475V223H400.803L400.495 220.82ZM394.659 218.359V218.175C394.659 217.454 394.738 216.798 394.896 216.206C395.055 215.608 395.289 215.096 395.6 214.668C395.91 214.234 396.297 213.9 396.76 213.666C397.223 213.432 397.756 213.314 398.359 213.314C398.898 213.314 399.37 213.44 399.774 213.692C400.179 213.938 400.524 214.284 400.812 214.729C401.099 215.175 401.333 215.696 401.515 216.294C401.696 216.886 401.834 217.524 401.928 218.21V218.43C401.834 219.074 401.696 219.684 401.515 220.258C401.333 220.826 401.099 221.33 400.812 221.77C400.524 222.209 400.176 222.555 399.766 222.807C399.361 223.053 398.887 223.176 398.342 223.176C397.738 223.176 397.205 223.056 396.742 222.815C396.285 222.575 395.901 222.238 395.591 221.805C395.286 221.371 395.055 220.861 394.896 220.275C394.738 219.689 394.659 219.051 394.659 218.359ZM397.621 218.175V218.359C397.621 218.717 397.645 219.048 397.691 219.353C397.738 219.657 397.817 219.927 397.929 220.161C398.046 220.39 398.198 220.568 398.386 220.697C398.579 220.826 398.816 220.891 399.098 220.891C399.479 220.891 399.792 220.8 400.038 220.618C400.29 220.437 400.475 220.179 400.592 219.845C400.715 219.511 400.768 219.118 400.75 218.667V217.973C400.762 217.586 400.735 217.246 400.671 216.953C400.606 216.654 400.504 216.405 400.363 216.206C400.229 216.007 400.056 215.857 399.845 215.758C399.64 215.652 399.396 215.6 399.115 215.6C398.84 215.6 398.605 215.664 398.412 215.793C398.225 215.922 398.072 216.104 397.955 216.338C397.838 216.566 397.753 216.839 397.7 217.155C397.647 217.466 397.621 217.806 397.621 218.175ZM410.708 220.688V213.49H413.679V223H410.901L410.708 220.688ZM410.989 218.755L411.763 218.737C411.763 219.376 411.687 219.968 411.534 220.513C411.382 221.052 411.156 221.521 410.857 221.919C410.564 222.317 410.201 222.628 409.768 222.851C409.34 223.067 408.845 223.176 408.282 223.176C407.813 223.176 407.383 223.111 406.99 222.982C406.604 222.848 406.27 222.64 405.988 222.358C405.707 222.071 405.487 221.705 405.329 221.26C405.177 220.809 405.101 220.27 405.101 219.643V213.49H408.062V219.66C408.062 219.871 408.089 220.053 408.142 220.205C408.194 220.357 408.271 220.486 408.37 220.592C408.47 220.691 408.593 220.768 408.739 220.82C408.892 220.867 409.064 220.891 409.258 220.891C409.703 220.891 410.052 220.797 410.304 220.609C410.556 220.422 410.731 220.167 410.831 219.845C410.937 219.522 410.989 219.159 410.989 218.755ZM418.442 213.49V223H415.472V213.49H418.442ZM415.296 211.038C415.296 210.616 415.448 210.271 415.753 210.001C416.058 209.731 416.453 209.597 416.939 209.597C417.426 209.597 417.821 209.731 418.126 210.001C418.431 210.271 418.583 210.616 418.583 211.038C418.583 211.46 418.431 211.806 418.126 212.075C417.821 212.345 417.426 212.479 416.939 212.479C416.453 212.479 416.058 212.345 415.753 212.075C415.448 211.806 415.296 211.46 415.296 211.038ZM423.18 215.521V223H420.218V213.49H422.995L423.18 215.521ZM422.828 217.92L422.134 217.938C422.134 217.211 422.222 216.563 422.397 215.995C422.573 215.421 422.822 214.935 423.145 214.536C423.467 214.138 423.851 213.836 424.296 213.631C424.747 213.42 425.248 213.314 425.799 213.314C426.238 213.314 426.64 213.379 427.003 213.508C427.372 213.637 427.688 213.845 427.952 214.132C428.222 214.419 428.427 214.8 428.567 215.274C428.714 215.743 428.787 216.323 428.787 217.015V223H425.808V217.006C425.808 216.625 425.755 216.335 425.649 216.136C425.544 215.931 425.392 215.79 425.192 215.714C424.993 215.638 424.75 215.6 424.463 215.6C424.158 215.6 423.9 215.658 423.689 215.775C423.479 215.893 423.309 216.057 423.18 216.268C423.057 216.473 422.966 216.716 422.907 216.997C422.854 217.278 422.828 217.586 422.828 217.92ZM430.062 218.342V218.157C430.062 217.46 430.161 216.818 430.36 216.232C430.56 215.641 430.853 215.128 431.239 214.694C431.626 214.261 432.104 213.924 432.672 213.684C433.24 213.438 433.896 213.314 434.641 213.314C435.391 213.314 436.05 213.438 436.618 213.684C437.192 213.924 437.673 214.261 438.06 214.694C438.446 215.128 438.739 215.641 438.938 216.232C439.138 216.818 439.237 217.46 439.237 218.157V218.342C439.237 219.033 439.138 219.675 438.938 220.267C438.739 220.853 438.446 221.365 438.06 221.805C437.673 222.238 437.195 222.575 436.627 222.815C436.059 223.056 435.402 223.176 434.658 223.176C433.914 223.176 433.255 223.056 432.681 222.815C432.106 222.575 431.626 222.238 431.239 221.805C430.853 221.365 430.56 220.853 430.36 220.267C430.161 219.675 430.062 219.033 430.062 218.342ZM433.023 218.157V218.342C433.023 218.699 433.05 219.033 433.103 219.344C433.155 219.654 433.243 219.927 433.366 220.161C433.489 220.39 433.656 220.568 433.867 220.697C434.078 220.826 434.342 220.891 434.658 220.891C434.969 220.891 435.227 220.826 435.432 220.697C435.643 220.568 435.81 220.39 435.933 220.161C436.056 219.927 436.144 219.654 436.196 219.344C436.249 219.033 436.275 218.699 436.275 218.342V218.157C436.275 217.812 436.249 217.486 436.196 217.182C436.144 216.871 436.056 216.599 435.933 216.364C435.81 216.124 435.643 215.937 435.432 215.802C435.221 215.667 434.957 215.6 434.641 215.6C434.33 215.6 434.069 215.667 433.858 215.802C433.653 215.937 433.489 216.124 433.366 216.364C433.243 216.599 433.155 216.871 433.103 217.182C433.05 217.486 433.023 217.812 433.023 218.157Z" fill="white"/>
<rect x="482" y="196" width="114" height="41" rx="3" fill="#424242"/>
<rect x="482" y="196" width="114" height="41" rx="3" stroke="#424242" stroke-width="4"/>
<path d="M508.062 210.203V223H504.978V210.203H508.062ZM513.037 215.529V217.902H507.184V215.529H513.037ZM513.538 210.203V212.585H507.184V210.203H513.538ZM517.81 213.49V223H514.839V213.49H517.81ZM514.663 211.038C514.663 210.616 514.815 210.271 515.12 210.001C515.425 209.731 515.82 209.597 516.307 209.597C516.793 209.597 517.188 209.731 517.493 210.001C517.798 210.271 517.95 210.616 517.95 211.038C517.95 211.46 517.798 211.806 517.493 212.075C517.188 212.345 516.793 212.479 516.307 212.479C515.82 212.479 515.425 212.345 515.12 212.075C514.815 211.806 514.663 211.46 514.663 211.038ZM522.626 215.846V223H519.664V213.49H522.433L522.626 215.846ZM525.438 213.42L525.386 216.171C525.269 216.159 525.11 216.145 524.911 216.127C524.712 216.109 524.545 216.101 524.41 216.101C524.064 216.101 523.766 216.142 523.514 216.224C523.268 216.3 523.062 216.417 522.898 216.575C522.74 216.728 522.623 216.921 522.547 217.155C522.477 217.39 522.444 217.662 522.45 217.973L521.914 217.621C521.914 216.982 521.976 216.402 522.099 215.881C522.228 215.354 522.409 214.899 522.644 214.519C522.878 214.132 523.162 213.836 523.496 213.631C523.83 213.42 524.205 213.314 524.621 213.314C524.768 213.314 524.911 213.323 525.052 213.341C525.198 213.358 525.327 213.385 525.438 213.42ZM530.888 223.176C530.114 223.176 529.423 223.056 528.813 222.815C528.204 222.569 527.688 222.232 527.267 221.805C526.851 221.377 526.531 220.885 526.309 220.328C526.092 219.771 525.983 219.183 525.983 218.562V218.228C525.983 217.53 526.08 216.886 526.273 216.294C526.467 215.696 526.754 215.175 527.135 214.729C527.516 214.284 527.993 213.938 528.567 213.692C529.142 213.44 529.81 213.314 530.571 213.314C531.245 213.314 531.849 213.423 532.382 213.64C532.915 213.856 533.366 214.167 533.735 214.571C534.11 214.976 534.395 215.465 534.588 216.039C534.787 216.613 534.887 217.258 534.887 217.973V219.177H527.117V217.322H531.995V217.094C532.001 216.777 531.945 216.508 531.828 216.285C531.717 216.062 531.553 215.893 531.336 215.775C531.119 215.658 530.855 215.6 530.545 215.6C530.223 215.6 529.956 215.67 529.745 215.811C529.54 215.951 529.379 216.145 529.262 216.391C529.15 216.631 529.071 216.909 529.024 217.226C528.978 217.542 528.954 217.876 528.954 218.228V218.562C528.954 218.913 529.001 219.232 529.095 219.52C529.194 219.807 529.335 220.053 529.517 220.258C529.704 220.457 529.927 220.612 530.185 220.724C530.448 220.835 530.747 220.891 531.081 220.891C531.485 220.891 531.884 220.814 532.276 220.662C532.669 220.51 533.006 220.258 533.287 219.906L534.632 221.506C534.438 221.781 534.163 222.048 533.806 222.306C533.454 222.563 533.032 222.774 532.54 222.938C532.048 223.097 531.497 223.176 530.888 223.176ZM536.117 209.5H539.079V220.662L538.771 223H536.117V209.5ZM544.915 218.14V218.324C544.915 219.045 544.842 219.701 544.695 220.293C544.549 220.885 544.323 221.397 544.019 221.831C543.714 222.259 543.33 222.59 542.867 222.824C542.404 223.059 541.856 223.176 541.224 223.176C540.649 223.176 540.157 223.053 539.747 222.807C539.337 222.555 538.994 222.209 538.719 221.77C538.443 221.324 538.221 220.812 538.051 220.231C537.881 219.646 537.746 219.019 537.646 218.351V218.131C537.746 217.469 537.881 216.848 538.051 216.268C538.221 215.682 538.443 215.169 538.719 214.729C538.994 214.284 539.334 213.938 539.738 213.692C540.148 213.44 540.638 213.314 541.206 213.314C541.845 213.314 542.396 213.435 542.858 213.675C543.327 213.915 543.714 214.252 544.019 214.686C544.323 215.119 544.549 215.629 544.695 216.215C544.842 216.801 544.915 217.442 544.915 218.14ZM541.953 218.324V218.14C541.953 217.794 541.933 217.469 541.892 217.164C541.851 216.859 541.777 216.59 541.672 216.355C541.566 216.121 541.417 215.937 541.224 215.802C541.03 215.667 540.778 215.6 540.468 215.6C540.151 215.6 539.885 215.652 539.668 215.758C539.457 215.863 539.287 216.016 539.158 216.215C539.035 216.408 538.947 216.648 538.895 216.936C538.842 217.217 538.818 217.536 538.824 217.894V218.588C538.812 219.074 538.856 219.49 538.956 219.836C539.056 220.182 539.229 220.445 539.475 220.627C539.721 220.809 540.058 220.899 540.485 220.899C540.802 220.899 541.057 220.838 541.25 220.715C541.449 220.592 541.599 220.416 541.698 220.188C541.798 219.959 541.865 219.687 541.9 219.37C541.936 219.054 541.953 218.705 541.953 218.324ZM551.173 220.609V216.689C551.173 216.42 551.135 216.188 551.059 215.995C550.982 215.802 550.862 215.652 550.698 215.547C550.534 215.436 550.314 215.38 550.039 215.38C549.816 215.38 549.626 215.418 549.468 215.494C549.31 215.57 549.189 215.685 549.107 215.837C549.025 215.989 548.984 216.183 548.984 216.417H546.022C546.022 215.978 546.119 215.57 546.312 215.195C546.512 214.814 546.793 214.483 547.156 214.202C547.525 213.921 547.965 213.704 548.475 213.552C548.99 213.394 549.564 213.314 550.197 213.314C550.953 213.314 551.627 213.44 552.219 213.692C552.816 213.944 553.288 214.322 553.634 214.826C553.979 215.324 554.152 215.951 554.152 216.707V220.601C554.152 221.222 554.188 221.693 554.258 222.016C554.328 222.332 554.428 222.61 554.557 222.851V223H551.586C551.445 222.707 551.34 222.35 551.27 221.928C551.205 221.5 551.173 221.061 551.173 220.609ZM551.533 217.19L551.551 218.772H550.241C549.966 218.772 549.731 218.811 549.538 218.887C549.351 218.963 549.198 219.068 549.081 219.203C548.97 219.332 548.888 219.479 548.835 219.643C548.788 219.807 548.765 219.979 548.765 220.161C548.765 220.337 548.806 220.495 548.888 220.636C548.976 220.771 549.093 220.876 549.239 220.952C549.386 221.028 549.55 221.066 549.731 221.066C550.06 221.066 550.338 221.005 550.566 220.882C550.801 220.753 550.979 220.598 551.103 220.416C551.226 220.234 551.287 220.064 551.287 219.906L551.938 221.119C551.82 221.354 551.686 221.591 551.533 221.831C551.387 222.071 551.202 222.294 550.979 222.499C550.763 222.698 550.496 222.862 550.18 222.991C549.863 223.114 549.479 223.176 549.028 223.176C548.442 223.176 547.903 223.056 547.411 222.815C546.925 222.575 546.535 222.241 546.242 221.813C545.949 221.38 545.803 220.882 545.803 220.319C545.803 219.827 545.891 219.388 546.066 219.001C546.248 218.614 546.521 218.286 546.884 218.017C547.247 217.747 547.71 217.542 548.272 217.401C548.835 217.261 549.497 217.19 550.259 217.19H551.533ZM560.779 220.328C560.779 220.164 560.724 220.023 560.612 219.906C560.507 219.783 560.319 219.672 560.05 219.572C559.78 219.467 559.402 219.361 558.916 219.256C558.453 219.156 558.017 219.024 557.606 218.86C557.202 218.696 556.848 218.497 556.543 218.263C556.238 218.028 555.998 217.75 555.822 217.428C555.652 217.105 555.567 216.736 555.567 216.32C555.567 215.916 555.652 215.535 555.822 215.178C555.998 214.814 556.253 214.495 556.587 214.22C556.927 213.938 557.34 213.719 557.826 213.561C558.312 213.396 558.866 213.314 559.487 213.314C560.343 213.314 561.081 213.446 561.702 213.71C562.323 213.968 562.801 214.331 563.135 214.8C563.475 215.263 563.645 215.799 563.645 216.408H560.683C560.683 216.168 560.642 215.963 560.56 215.793C560.483 215.623 560.357 215.494 560.182 215.406C560.006 215.312 559.771 215.266 559.479 215.266C559.273 215.266 559.086 215.304 558.916 215.38C558.752 215.456 558.62 215.562 558.521 215.696C558.421 215.831 558.371 215.989 558.371 216.171C558.371 216.3 558.4 216.417 558.459 216.522C558.523 216.622 558.62 216.716 558.749 216.804C558.878 216.886 559.042 216.962 559.241 217.032C559.44 217.097 559.681 217.155 559.962 217.208C560.601 217.325 561.198 217.492 561.755 217.709C562.312 217.926 562.763 218.233 563.108 218.632C563.46 219.03 563.636 219.566 563.636 220.24C563.636 220.662 563.539 221.052 563.346 221.409C563.152 221.761 562.874 222.071 562.511 222.341C562.147 222.604 561.711 222.81 561.201 222.956C560.691 223.103 560.117 223.176 559.479 223.176C558.57 223.176 557.803 223.015 557.176 222.692C556.549 222.364 556.074 221.954 555.752 221.462C555.436 220.964 555.277 220.46 555.277 219.95H558.037C558.049 220.243 558.119 220.483 558.248 220.671C558.383 220.858 558.562 220.996 558.784 221.084C559.007 221.172 559.265 221.216 559.558 221.216C559.827 221.216 560.05 221.178 560.226 221.102C560.407 221.025 560.545 220.923 560.639 220.794C560.732 220.659 560.779 220.504 560.779 220.328ZM569.63 223.176C568.856 223.176 568.165 223.056 567.556 222.815C566.946 222.569 566.431 222.232 566.009 221.805C565.593 221.377 565.273 220.885 565.051 220.328C564.834 219.771 564.726 219.183 564.726 218.562V218.228C564.726 217.53 564.822 216.886 565.016 216.294C565.209 215.696 565.496 215.175 565.877 214.729C566.258 214.284 566.735 213.938 567.31 213.692C567.884 213.44 568.552 213.314 569.313 213.314C569.987 213.314 570.591 213.423 571.124 213.64C571.657 213.856 572.108 214.167 572.478 214.571C572.853 214.976 573.137 215.465 573.33 216.039C573.529 216.613 573.629 217.258 573.629 217.973V219.177H565.859V217.322H570.737V217.094C570.743 216.777 570.688 216.508 570.57 216.285C570.459 216.062 570.295 215.893 570.078 215.775C569.861 215.658 569.598 215.6 569.287 215.6C568.965 215.6 568.698 215.67 568.487 215.811C568.282 215.951 568.121 216.145 568.004 216.391C567.893 216.631 567.813 216.909 567.767 217.226C567.72 217.542 567.696 217.876 567.696 218.228V218.562C567.696 218.913 567.743 219.232 567.837 219.52C567.937 219.807 568.077 220.053 568.259 220.258C568.446 220.457 568.669 220.612 568.927 220.724C569.19 220.835 569.489 220.891 569.823 220.891C570.228 220.891 570.626 220.814 571.019 220.662C571.411 220.51 571.748 220.258 572.029 219.906L573.374 221.506C573.181 221.781 572.905 222.048 572.548 222.306C572.196 222.563 571.774 222.774 571.282 222.938C570.79 223.097 570.239 223.176 569.63 223.176Z" fill="white"/>
<rect x="616" y="196" width="103" height="41" rx="3" fill="#424242"/>
<rect x="616" y="196" width="103" height="41" rx="3" stroke="#424242" stroke-width="4"/>
<path d="M640.72 210.203H643.233L646.09 219.106L648.946 210.203H651.46L647.109 223H645.07L640.72 210.203ZM639.19 210.203H641.792L642.275 220.012V223H639.19V210.203ZM650.388 210.203H652.998V223H649.904V220.012L650.388 210.203ZM657.753 221.884L660.214 213.49H663.396L659.572 224.415C659.49 224.655 659.382 224.913 659.247 225.188C659.112 225.47 658.928 225.736 658.693 225.988C658.459 226.24 658.157 226.445 657.788 226.604C657.425 226.762 656.974 226.841 656.435 226.841C656.147 226.841 655.937 226.826 655.802 226.797C655.673 226.773 655.474 226.729 655.204 226.665V224.547C655.28 224.547 655.345 224.547 655.397 224.547C655.456 224.547 655.521 224.547 655.591 224.547C655.907 224.547 656.159 224.515 656.347 224.45C656.54 224.386 656.687 224.292 656.786 224.169C656.892 224.046 656.974 223.896 657.032 223.721L657.753 221.884ZM657.129 213.49L659.001 220.144L659.326 223.281H657.34L653.956 213.49H657.129ZM670.901 219.599C670.901 219.399 670.872 219.221 670.813 219.062C670.755 218.898 670.646 218.746 670.488 218.605C670.33 218.465 670.102 218.324 669.803 218.184C669.51 218.037 669.123 217.885 668.643 217.727C668.08 217.539 667.538 217.328 667.017 217.094C666.495 216.854 666.029 216.575 665.619 216.259C665.209 215.937 664.884 215.562 664.644 215.134C664.403 214.7 664.283 214.196 664.283 213.622C664.283 213.071 664.406 212.576 664.652 212.137C664.898 211.691 665.241 211.313 665.681 211.003C666.126 210.687 666.647 210.446 667.245 210.282C667.843 210.112 668.496 210.027 669.205 210.027C670.143 210.027 670.969 210.191 671.684 210.52C672.404 210.842 672.967 211.302 673.371 211.899C673.781 212.491 673.986 213.191 673.986 214H670.919C670.919 213.678 670.852 213.394 670.717 213.147C670.588 212.901 670.392 212.708 670.128 212.567C669.864 212.427 669.533 212.356 669.135 212.356C668.748 212.356 668.423 212.415 668.159 212.532C667.896 212.649 667.696 212.808 667.562 213.007C667.427 213.2 667.359 213.414 667.359 213.648C667.359 213.842 667.412 214.018 667.518 214.176C667.629 214.328 667.784 214.472 667.983 214.606C668.188 214.741 668.435 214.87 668.722 214.993C669.015 215.116 669.343 215.236 669.706 215.354C670.386 215.57 670.989 215.813 671.517 216.083C672.05 216.347 672.498 216.648 672.861 216.988C673.23 217.322 673.509 217.703 673.696 218.131C673.89 218.559 673.986 219.042 673.986 219.581C673.986 220.155 673.875 220.665 673.652 221.11C673.43 221.556 673.11 221.934 672.694 222.244C672.278 222.549 671.78 222.78 671.2 222.938C670.62 223.097 669.973 223.176 669.258 223.176C668.602 223.176 667.954 223.094 667.315 222.93C666.683 222.76 666.108 222.502 665.593 222.156C665.077 221.805 664.664 221.356 664.354 220.812C664.049 220.261 663.896 219.607 663.896 218.852H666.99C666.99 219.227 667.04 219.543 667.14 219.801C667.239 220.059 667.386 220.267 667.579 220.425C667.772 220.577 668.01 220.688 668.291 220.759C668.572 220.823 668.895 220.855 669.258 220.855C669.65 220.855 669.967 220.8 670.207 220.688C670.447 220.571 670.623 220.419 670.734 220.231C670.846 220.038 670.901 219.827 670.901 219.599ZM682.714 220.891L686.282 223.721L684.366 225.338L680.859 222.508L682.714 220.891ZM686.432 216.347V216.865C686.432 217.844 686.294 218.723 686.019 219.502C685.749 220.275 685.362 220.938 684.858 221.488C684.36 222.033 683.771 222.452 683.092 222.745C682.412 223.032 681.662 223.176 680.842 223.176C680.016 223.176 679.26 223.032 678.574 222.745C677.895 222.452 677.303 222.033 676.799 221.488C676.301 220.938 675.914 220.275 675.639 219.502C675.369 218.723 675.234 217.844 675.234 216.865V216.347C675.234 215.368 675.369 214.489 675.639 213.71C675.914 212.931 676.298 212.269 676.79 211.724C677.288 211.173 677.877 210.754 678.557 210.467C679.242 210.174 679.998 210.027 680.824 210.027C681.645 210.027 682.395 210.174 683.074 210.467C683.76 210.754 684.352 211.173 684.85 211.724C685.354 212.269 685.743 212.931 686.019 213.71C686.294 214.489 686.432 215.368 686.432 216.347ZM683.294 216.865V216.329C683.294 215.696 683.238 215.14 683.127 214.659C683.021 214.173 682.863 213.766 682.652 213.438C682.441 213.109 682.181 212.863 681.87 212.699C681.565 212.529 681.217 212.444 680.824 212.444C680.414 212.444 680.057 212.529 679.752 212.699C679.447 212.863 679.192 213.109 678.987 213.438C678.782 213.766 678.627 214.173 678.521 214.659C678.422 215.14 678.372 215.696 678.372 216.329V216.865C678.372 217.492 678.422 218.049 678.521 218.535C678.627 219.016 678.782 219.423 678.987 219.757C679.198 220.091 679.456 220.343 679.761 220.513C680.071 220.683 680.432 220.768 680.842 220.768C681.234 220.768 681.583 220.683 681.888 220.513C682.192 220.343 682.447 220.091 682.652 219.757C682.863 219.423 683.021 219.016 683.127 218.535C683.238 218.049 683.294 217.492 683.294 216.865ZM696.46 220.627V223H689.991V220.627H696.46ZM691.09 210.203V223H688.005V210.203H691.09Z" fill="white"/>
<rect x="739" y="196" width="154" height="41" rx="3" fill="#424242"/>
<rect x="739" y="196" width="154" height="41" rx="3" stroke="#424242" stroke-width="4"/>
<path d="M763.872 210.203H766.386L769.242 219.106L772.099 210.203H774.612L770.262 223H768.223L763.872 210.203ZM762.343 210.203H764.944L765.428 220.012V223H762.343V210.203ZM773.54 210.203H776.15V223H773.057V220.012L773.54 210.203ZM785.265 220.891L788.833 223.721L786.917 225.338L783.41 222.508L785.265 220.891ZM788.982 216.347V216.865C788.982 217.844 788.845 218.723 788.569 219.502C788.3 220.275 787.913 220.938 787.409 221.488C786.911 222.033 786.322 222.452 785.643 222.745C784.963 223.032 784.213 223.176 783.393 223.176C782.566 223.176 781.811 223.032 781.125 222.745C780.445 222.452 779.854 222.033 779.35 221.488C778.852 220.938 778.465 220.275 778.189 219.502C777.92 218.723 777.785 217.844 777.785 216.865V216.347C777.785 215.368 777.92 214.489 778.189 213.71C778.465 212.931 778.849 212.269 779.341 211.724C779.839 211.173 780.428 210.754 781.107 210.467C781.793 210.174 782.549 210.027 783.375 210.027C784.195 210.027 784.945 210.174 785.625 210.467C786.311 210.754 786.902 211.173 787.4 211.724C787.904 212.269 788.294 212.931 788.569 213.71C788.845 214.489 788.982 215.368 788.982 216.347ZM785.845 216.865V216.329C785.845 215.696 785.789 215.14 785.678 214.659C785.572 214.173 785.414 213.766 785.203 213.438C784.992 213.109 784.731 212.863 784.421 212.699C784.116 212.529 783.768 212.444 783.375 212.444C782.965 212.444 782.607 212.529 782.303 212.699C781.998 212.863 781.743 213.109 781.538 213.438C781.333 213.766 781.178 214.173 781.072 214.659C780.973 215.14 780.923 215.696 780.923 216.329V216.865C780.923 217.492 780.973 218.049 781.072 218.535C781.178 219.016 781.333 219.423 781.538 219.757C781.749 220.091 782.007 220.343 782.312 220.513C782.622 220.683 782.982 220.768 783.393 220.768C783.785 220.768 784.134 220.683 784.438 220.513C784.743 220.343 784.998 220.091 785.203 219.757C785.414 219.423 785.572 219.016 785.678 218.535C785.789 218.049 785.845 217.492 785.845 216.865ZM796.453 210.203V223H793.368V210.203H796.453ZM800.303 210.203V212.585H789.606V210.203H800.303ZM807.949 210.203V223H804.864V210.203H807.949ZM811.799 210.203V212.585H801.103V210.203H811.799ZM822.284 217.56H818.988L818.971 215.538H821.643C822.123 215.538 822.507 215.485 822.794 215.38C823.081 215.269 823.289 215.107 823.418 214.896C823.553 214.686 823.62 214.422 823.62 214.105C823.62 213.742 823.553 213.449 823.418 213.227C823.283 213.004 823.069 212.843 822.776 212.743C822.489 212.638 822.117 212.585 821.66 212.585H820.148V223H817.063V210.203H821.66C822.451 210.203 823.157 210.276 823.778 210.423C824.399 210.563 824.927 210.78 825.36 211.073C825.8 211.366 826.134 211.735 826.362 212.181C826.591 212.62 826.705 213.139 826.705 213.736C826.705 214.258 826.594 214.747 826.371 215.204C826.148 215.661 825.776 216.033 825.255 216.32C824.739 216.602 824.033 216.748 823.137 216.76L822.284 217.56ZM822.161 223H818.241L819.296 220.627H822.161C822.583 220.627 822.92 220.562 823.172 220.434C823.43 220.299 823.614 220.123 823.726 219.906C823.843 219.684 823.901 219.438 823.901 219.168C823.901 218.84 823.846 218.556 823.734 218.315C823.629 218.075 823.459 217.891 823.225 217.762C822.99 217.627 822.677 217.56 822.284 217.56H819.691L819.709 215.538H822.812L823.532 216.347C824.388 216.312 825.064 216.432 825.562 216.707C826.066 216.982 826.427 217.346 826.644 217.797C826.86 218.248 826.969 218.72 826.969 219.212C826.969 220.05 826.787 220.75 826.424 221.312C826.066 221.875 825.53 222.297 824.815 222.578C824.101 222.859 823.216 223 822.161 223ZM831.53 215.846V223H828.568V213.49H831.337L831.53 215.846ZM834.343 213.42L834.29 216.171C834.173 216.159 834.015 216.145 833.815 216.127C833.616 216.109 833.449 216.101 833.314 216.101C832.969 216.101 832.67 216.142 832.418 216.224C832.172 216.3 831.967 216.417 831.803 216.575C831.645 216.728 831.527 216.921 831.451 217.155C831.381 217.39 831.349 217.662 831.354 217.973L830.818 217.621C830.818 216.982 830.88 216.402 831.003 215.881C831.132 215.354 831.313 214.899 831.548 214.519C831.782 214.132 832.066 213.836 832.4 213.631C832.734 213.42 833.109 213.314 833.525 213.314C833.672 213.314 833.815 213.323 833.956 213.341C834.103 213.358 834.231 213.385 834.343 213.42ZM834.677 218.342V218.157C834.677 217.46 834.776 216.818 834.976 216.232C835.175 215.641 835.468 215.128 835.854 214.694C836.241 214.261 836.719 213.924 837.287 213.684C837.855 213.438 838.512 213.314 839.256 213.314C840.006 213.314 840.665 213.438 841.233 213.684C841.808 213.924 842.288 214.261 842.675 214.694C843.062 215.128 843.354 215.641 843.554 216.232C843.753 216.818 843.853 217.46 843.853 218.157V218.342C843.853 219.033 843.753 219.675 843.554 220.267C843.354 220.853 843.062 221.365 842.675 221.805C842.288 222.238 841.811 222.575 841.242 222.815C840.674 223.056 840.018 223.176 839.273 223.176C838.529 223.176 837.87 223.056 837.296 222.815C836.722 222.575 836.241 222.238 835.854 221.805C835.468 221.365 835.175 220.853 834.976 220.267C834.776 219.675 834.677 219.033 834.677 218.342ZM837.639 218.157V218.342C837.639 218.699 837.665 219.033 837.718 219.344C837.771 219.654 837.858 219.927 837.981 220.161C838.104 220.39 838.271 220.568 838.482 220.697C838.693 220.826 838.957 220.891 839.273 220.891C839.584 220.891 839.842 220.826 840.047 220.697C840.258 220.568 840.425 220.39 840.548 220.161C840.671 219.927 840.759 219.654 840.812 219.344C840.864 219.033 840.891 218.699 840.891 218.342V218.157C840.891 217.812 840.864 217.486 840.812 217.182C840.759 216.871 840.671 216.599 840.548 216.364C840.425 216.124 840.258 215.937 840.047 215.802C839.836 215.667 839.572 215.6 839.256 215.6C838.945 215.6 838.685 215.667 838.474 215.802C838.269 215.937 838.104 216.124 837.981 216.364C837.858 216.599 837.771 216.871 837.718 217.182C837.665 217.486 837.639 217.812 837.639 218.157ZM848.159 209.491V223H845.197V209.491H848.159ZM854.241 213.49L850.11 218.333L847.948 220.495L846.656 218.614L848.458 216.268L850.69 213.49H854.241ZM851.068 223L848.528 218.667L850.717 217.111L854.461 223H851.068ZM859.444 223.176C858.671 223.176 857.979 223.056 857.37 222.815C856.761 222.569 856.245 222.232 855.823 221.805C855.407 221.377 855.088 220.885 854.865 220.328C854.648 219.771 854.54 219.183 854.54 218.562V218.228C854.54 217.53 854.637 216.886 854.83 216.294C855.023 215.696 855.311 215.175 855.691 214.729C856.072 214.284 856.55 213.938 857.124 213.692C857.698 213.44 858.366 213.314 859.128 213.314C859.802 213.314 860.405 213.423 860.938 213.64C861.472 213.856 861.923 214.167 862.292 214.571C862.667 214.976 862.951 215.465 863.145 216.039C863.344 216.613 863.443 217.258 863.443 217.973V219.177H855.674V217.322H860.552V217.094C860.558 216.777 860.502 216.508 860.385 216.285C860.273 216.062 860.109 215.893 859.893 215.775C859.676 215.658 859.412 215.6 859.102 215.6C858.779 215.6 858.513 215.67 858.302 215.811C858.097 215.951 857.936 216.145 857.818 216.391C857.707 216.631 857.628 216.909 857.581 217.226C857.534 217.542 857.511 217.876 857.511 218.228V218.562C857.511 218.913 857.558 219.232 857.651 219.52C857.751 219.807 857.892 220.053 858.073 220.258C858.261 220.457 858.483 220.612 858.741 220.724C859.005 220.835 859.304 220.891 859.638 220.891C860.042 220.891 860.44 220.814 860.833 220.662C861.226 220.51 861.562 220.258 861.844 219.906L863.188 221.506C862.995 221.781 862.72 222.048 862.362 222.306C862.011 222.563 861.589 222.774 861.097 222.938C860.604 223.097 860.054 223.176 859.444 223.176ZM867.636 215.846V223H864.674V213.49H867.442L867.636 215.846ZM870.448 213.42L870.396 216.171C870.278 216.159 870.12 216.145 869.921 216.127C869.722 216.109 869.555 216.101 869.42 216.101C869.074 216.101 868.775 216.142 868.523 216.224C868.277 216.3 868.072 216.417 867.908 216.575C867.75 216.728 867.633 216.921 867.557 217.155C867.486 217.39 867.454 217.662 867.46 217.973L866.924 217.621C866.924 216.982 866.985 216.402 867.108 215.881C867.237 215.354 867.419 214.899 867.653 214.519C867.888 214.132 868.172 213.836 868.506 213.631C868.84 213.42 869.215 213.314 869.631 213.314C869.777 213.314 869.921 213.323 870.062 213.341C870.208 213.358 870.337 213.385 870.448 213.42Z" fill="white"/>
<path d="M1066 0H1348C1356.28 0 1363 6.71573 1363 15V282C1363 290.284 1356.28 297 1348 297H1066V0Z" fill="white"/>
<path d="M1160.39 61.3616L1160.39 205.362" stroke="#53BC9D" stroke-width="2" stroke-linecap="round"/>
<path d="M1160.39 61.3616C1187.64 70.0612 1230.16 83.6383 1230.16 83.6383" stroke="#53BC9D" stroke-width="2" stroke-linecap="round"/>
<circle cx="1234.68" cy="85.6559" r="4" transform="rotate(3.4802 1234.68 85.6559)" stroke="#53BC9D" stroke-width="2"/>
<circle cx="1227.74" cy="164.597" r="3" transform="rotate(3.4802 1227.74 164.597)" stroke="#53BC9D" stroke-width="2"/>
<path d="M1235.19 237.362L1235.19 93.3616" stroke="#53BC9D" stroke-width="2" stroke-linecap="round"/>
<path d="M1235.16 237.638C1207.91 228.939 1165.39 215.362 1165.39 215.362" stroke="#53BC9D" stroke-width="2" stroke-linecap="round"/>
<circle cx="1160.68" cy="213.656" r="4" transform="rotate(-176.52 1160.68 213.656)" stroke="#53BC9D" stroke-width="2"/>
<path fill-rule="evenodd" clip-rule="evenodd" d="M1242.76 86.2093C1242.58 89.1344 1240.84 91.5907 1238.39 92.809L1238.39 222.862H1258.51V59.3616L1165.27 59.3616L1229.44 79.9867C1230.98 78.5383 1233.08 77.7032 1235.35 77.8413C1239.71 78.1063 1243.03 81.8527 1242.76 86.2093Z" fill="#373737"/>
<path d="M1232.39 168.143C1254.3 177.919 1271.47 157.346 1260.23 139.295" stroke="#53BC9D" stroke-width="2" stroke-linecap="round"/>
<path d="M1251.22 175.518C1263.48 173.958 1270.65 161.661 1268.92 152.467" stroke="#53BC9D" stroke-width="2" stroke-linecap="round"/>
<path d="M1262.39 176.716C1267.52 174.082 1270.67 169.984 1271.69 164.428" stroke="#53BC9D" stroke-width="2" stroke-linecap="round"/>
</svg>
